<?xml version="1.0" encoding="utf-8"?>
<!-- Generator: Adobe Illustrator 19.0.0, SVG Export Plug-In . SVG Version: 6.00 Build 0)  -->
<svg version="1.1" id="Layer_1" xmlns="http://www.w3.org/2000/svg" xmlns:xlink="http://www.w3.org/1999/xlink" x="0px" y="0px"
	 viewBox="-1476 1043 512 512" style="enable-background:new -1476 1043 512 512;" xml:space="preserve">
<style type="text/css">
	.st0{fill:none;}
	.st1{enable-background:new    ;}
</style>
<path id="language-8-icon" d="M-1220,1197c4,2.3,6.8,5.3,8.4,8.7l16.2-4.2c-3-8.4-9.7-15.7-19.3-20.4c0.9-3.6,1.5-6.3,2-9l-16.2-3.2
	c-0.3,1.4-0.8,3.9-1.6,7.4c-5.5-0.8-11.3-0.9-17.2-0.3c0.1-4,0.4-7.9,0.7-11.6h18.2V1149h-16c0.8-3.9,1.5-6.3,2.1-8.5l-15.9-4.7
	c-1.2,3.9-2.1,7.7-3.1,13.2h-18.1v15.4h16.1c-0.4,5-0.7,10.1-0.8,15.3c-38.9,14.3-29,56.7,1.8,53.9
	C-1242,1231.9-1228.2,1216.2-1220,1197z M-1264.1,1197.8c0.5,7,1.2,13.4,2.3,19.2C-1276.5,1219.7-1277.1,1205.2-1264.1,1197.8z
	 M-1246.4,1208.3c-0.7-4.8-1.1-10-1.4-15.6c3.9-0.5,7.9-0.6,11.7-0.3C-1238.7,1198.2-1242.1,1203.8-1246.4,1208.3z M-1162.8,1277.4
	l9.8,28.1h-19.7L-1162.8,1277.4z M-1288.8,1337.5c-22.3,13.3-69.3,26.5-102.5,32.6c12.6-25,26.6-59.4,25.9-83.4
	c-17-20.5-26.6-46.9-26.6-73.8c0-75.8,73.5-131.2,155.8-131.2c84.9,0,160.4,59.2,155.6,137.8c-9.9-7.2-20.9-13.1-32.9-17.5
	c-7-52.7-64.3-87.9-122.8-87.9c-63-0.1-123.4,40.6-123.4,98.8c0,33.3,19,52.9,26.2,61.7c1.2,13.1-0.9,32.2-4.8,48.8
	c26.8-8.8,32.6-13.3,44.2-20.6C-1294.3,1314.7-1292.6,1326.2-1288.8,1337.5z M-1076.9,1355.5c11.5-13.8,18-31.6,18-49.8
	c0-51.2-49.8-88.6-105.5-88.6c-55.4,0-105.5,37.1-105.5,88.6c0,53.6,59.2,103.6,140.3,83.7c14.7,9.1,47.3,18.3,70.1,22.4
	C-1067.9,1394.9-1077.3,1371.8-1076.9,1355.5z M-1141.5,1338.3l-7.1-20.1h-28.6l-7.1,20.1h-16.5l30.2-78.6h15.9l30.3,78.6H-1141.5z"
	/>
<rect x="-1460.7" y="1452.9" class="st0" width="504" height="73.3"/>
<g class="st1">
	<path d="M-1442.7,1468h-16.7v-11.8h47.7v11.8h-16.9v50.2h-14.1V1468z"/>
	<path d="M-1404.2,1457.1c4.5-0.7,11.2-1.3,18.7-1.3c9.2,0,15.6,1.4,20.1,4.9c3.7,2.9,5.7,7.3,5.7,13c0,7.9-5.6,13.3-10.9,15.3v0.3
		c4.3,1.7,6.7,5.9,8.3,11.6c1.9,7,3.9,15.1,5.1,17.5h-14.4c-1-1.7-2.5-6.8-4.3-14.4c-1.7-7.7-4.3-9.8-10-9.9h-4.2v24.4h-13.9V1457.1
		z M-1390.3,1483.7h5.5c7,0,11.1-3.5,11.1-8.9c0-5.7-3.9-8.6-10.3-8.6c-3.4,0-5.3,0.3-6.3,0.5V1483.7z"/>
	<path d="M-1334.4,1502.3l-4.4,15.9h-14.5l19-62h18.4l19.2,62h-15.1l-4.8-15.9H-1334.4z M-1318.7,1491.8l-3.9-13.2
		c-1.1-3.7-2.2-8.3-3.1-12h-0.2c-0.9,3.7-1.8,8.4-2.9,12l-3.7,13.2H-1318.7z"/>
	<path d="M-1288.5,1518.2v-62h16.4l12.9,22.7c3.7,6.5,7.4,14.3,10.1,21.3h0.3c-0.9-8.2-1.2-16.6-1.2-25.9v-18.1h12.9v62h-14.7
		l-13.2-23.9c-3.7-6.6-7.7-14.6-10.8-21.9l-0.3,0.1c0.4,8.2,0.6,16.9,0.6,27v18.7H-1288.5z"/>
	<path d="M-1224.5,1503.8c3.8,1.9,9.6,3.9,15.5,3.9c6.4,0,9.8-2.7,9.8-6.7c0-3.9-2.9-6.1-10.4-8.7c-10.3-3.6-17-9.3-17-18.3
		c0-10.6,8.8-18.7,23.5-18.7c7,0,12.1,1.5,15.8,3.1l-3.1,11.3c-2.5-1.2-6.9-2.9-13-2.9c-6.1,0-9,2.8-9,6c0,4,3.5,5.7,11.5,8.7
		c10.9,4,16.1,9.8,16.1,18.5c0,10.4-8,19.2-25,19.2c-7.1,0-14.1-1.8-17.6-3.8L-1224.5,1503.8z"/>
	<path d="M-1175.3,1456.2h14.1v50.2h24.7v11.8h-38.7V1456.2z"/>
	<path d="M-1113.3,1502.3l-4.4,15.9h-14.5l19-62h18.4l19.2,62h-15.1l-4.8-15.9H-1113.3z M-1097.6,1491.8l-3.9-13.2
		c-1.1-3.7-2.2-8.3-3.1-12h-0.2c-0.9,3.7-1.8,8.4-2.9,12l-3.7,13.2H-1097.6z"/>
	<path d="M-1063.1,1468h-16.7v-11.8h47.7v11.8h-16.9v50.2h-14.1V1468z"/>
	<path d="M-987.7,1492h-22.8v14.7h25.5v11.5h-39.6v-62h38.3v11.5h-24.2v12.9h22.8V1492z"/>
</g>
</svg>
