<?xml version="1.0" encoding="utf-8"?>
<!-- Generator: Adobe Illustrator 18.1.0, SVG Export Plug-In . SVG Version: 6.00 Build 0)  -->
<svg version="1.1" id="Layer_1" xmlns="http://www.w3.org/2000/svg" xmlns:xlink="http://www.w3.org/1999/xlink" x="0px" y="0px"
	 viewBox="-49 141 512 512" enable-background="new -49 141 512 512" xml:space="preserve">
<path id="language-8-icon" d="M206.7,299.3c4,2.3,6.8,5.3,8.4,8.7l16.2-4.2c-3-8.4-9.7-15.7-19.3-20.4c0.9-3.6,1.5-6.3,2-9
	l-16.2-3.2c-0.3,1.4-0.8,3.9-1.6,7.4c-5.5-0.8-11.3-0.9-17.2-0.3c0.1-4,0.4-7.9,0.7-11.6h18.2v-15.4h-16c0.8-3.9,1.5-6.3,2.1-8.5
	l-15.9-4.7c-1.2,3.9-2.1,7.7-3.1,13.2h-18.1v15.4h16.1c-0.4,5-0.7,10.1-0.8,15.3c-38.9,14.3-29,56.7,1.8,53.9
	C184.7,334.2,198.5,318.5,206.7,299.3z M162.6,300c0.5,7,1.2,13.4,2.3,19.2C150.2,321.9,149.6,307.4,162.6,300z M180.3,310.6
	c-0.7-4.8-1.1-10-1.4-15.6c3.9-0.5,7.9-0.6,11.7-0.3C188,300.4,184.6,306.1,180.3,310.6z M263.9,379.7l9.8,28.1H254L263.9,379.7z
	 M137.9,439.8c-22.3,13.3-69.3,26.5-102.5,32.6C48,447.4,62,413,61.3,389c-17-20.5-26.6-46.9-26.6-73.8
	c0-75.8,73.5-131.2,155.8-131.2c84.9,0,160.4,59.2,155.6,137.8c-9.9-7.2-20.9-13.1-32.9-17.5c-7-52.7-64.3-87.9-122.8-87.9
	C127.4,216.3,67,257,67,315.2c0,33.3,19,52.9,26.2,61.7c1.2,13.1-0.9,32.2-4.8,48.8c26.8-8.8,32.6-13.3,44.2-20.6
	C132.4,416.9,134.1,428.4,137.9,439.8z M349.8,457.8c11.5-13.8,18-31.6,18-49.8c0-51.2-49.8-88.6-105.5-88.6
	c-55.4,0-105.5,37.1-105.5,88.6c0,53.6,59.2,103.6,140.3,83.7c14.7,9.1,47.3,18.3,70.1,22.4C358.8,497.2,349.4,474,349.8,457.8z
	 M285.2,440.6l-7.1-20.1h-28.6l-7.1,20.1h-16.5l30.2-78.6H272l30.3,78.6H285.2z"/>
<rect x="-34" y="555.2" fill="none" width="504" height="73.3"/>
<text transform="matrix(1 0 0 1 -34 620.4894)" font-family="'MyriadPro-Bold'" font-size="92">TRANSLATE</text>
</svg>
