<?xml version="1.0" encoding="utf-8"?>
<!-- Generator: Adobe Illustrator 19.0.0, SVG Export Plug-In . SVG Version: 6.00 Build 0)  -->
<svg version="1.1" id="Layer_1" xmlns="http://www.w3.org/2000/svg" xmlns:xlink="http://www.w3.org/1999/xlink" x="0px" y="0px"
	 viewBox="185 -186.3 512 512" style="enable-background:new 185 -186.3 512 512;" xml:space="preserve">
<style type="text/css">
	.st0{display:none;}
	.st1{display:inline;fill:#1F1D1C;}
	.st2{fill:none;stroke:#1F1D1C;stroke-width:24;stroke-miterlimit:10;}
	.st3{fill:none;stroke:#1F1D1C;stroke-width:18;stroke-miterlimit:10;}
	.st4{fill:#1F1D1C;stroke:#1F1D1C;stroke-width:18;stroke-miterlimit:10;}
</style>
<g id="Layer_1_1_" class="st0">
	<path id="instagram-icon" class="st1" d="M494.8,421.3h143.1V641c0,53.5-43.4,96.9-96.9,96.9H244.9c-53.5,0-96.9-43.4-96.9-96.9
		V421.3h142.5c-14.6,20.4-23.2,45.5-23.2,72.6c0,69.2,56.2,125.4,125.4,125.4S518,563.1,518,493.9
		C518,466.8,509.4,441.9,494.8,421.3z M637.9,342.4V406h-156c-22.7-23.1-54.3-37.4-89.3-37.4S326,382.9,303.3,406H148.1v-63.6
		c0-32.6,16.1-61.6,40.9-79.1v104.4h19.8V252.4c4.5-1.8,9.2-3.3,14-4.4v119.7h19.8V245.5c0.7,0,1.4,0,2.3,0h11.5v122.2h19.8V245.5
		H541C594.5,245.5,637.9,288.9,637.9,342.4z M593.7,301.5c0-8.6-6.9-15.5-15.5-15.5h-52.4c-8.6,0-15.5,6.9-15.5,15.5V355
		c0,8.6,6.9,15.5,15.5,15.5h52.4c8.6,0,15.5-6.9,15.5-15.5V301.5L593.7,301.5z M296.1,494c0-28.9,12.8-54.9,33-72.6
		c7.1-6.2,15.1-11.4,23.8-15.3c12.2-5.5,25.6-8.6,39.8-8.6s27.7,3.1,39.8,8.6c8.7,3.9,16.7,9.1,23.8,15.3c20.2,17.7,33,43.6,33,72.6
		c0,53.2-43.3,96.6-96.6,96.6C339.4,590.6,296.1,547.2,296.1,494z M321.6,494c0,39.4,31.9,71.4,71.4,71.4s71.4-31.9,71.4-71.4
		s-31.9-71.4-71.4-71.4C353.6,422.6,321.6,454.5,321.6,494z"/>
</g>
<g id="Layer_2">
	<path class="st2" d="M199.1,232.3c0,0,61.2-25.9,76.7-62.9c14.6,27.8,53.3,61.2,79.6,61c26.3-0.2,65.9-41.5,85.3-91.7
		c25.8,63.7,31.3,92.8,67.3,93.6c26.3,0,78.1-22.6,93.5-64.9c8.5,32.8,32.2,63.2,81.5,63.7"/>
</g>
<g id="Layer_3">
	<path class="st3" d="M349,219.5c0,0,35-38,38-118c10-46.6-187.9-84-158-221c6.8,0.7,13.8,35.9,41,55c68,9,134,34,171,56
		c48-28,72.6-23.1,181-55c25.9-11.8,29.9-39.1,43-46c27,99-155.8,178.5-155,205c1.4,45.4-16,97.7,18,133.7"/>
</g>
<path class="st4" d="M349,222.6c0,0,35-38,38-118c10-46.6-187.9-84-158-221c6.8,0.7,13.8,35.9,41,55c68,9,134,34,171,56
	c48-28,72.6-23.1,181-55c25.9-11.8,29.9-39.1,43-46c27,99-155.8,178.5-155,205c1.4,45.4-16,97.7,18,133.7c0,0-53,34.1-81.2-111.9
	C407,232.3,349,222.6,349,222.6z"/>
</svg>
