<?xml version="1.0" encoding="utf-8"?>
<!-- Generator: Adobe Illustrator 18.1.0, SVG Export Plug-In . SVG Version: 6.00 Build 0)  -->
<svg version="1.1" id="Layer_1" xmlns="http://www.w3.org/2000/svg" xmlns:xlink="http://www.w3.org/1999/xlink" x="0px" y="0px"
	 viewBox="-49 141 512 512" enable-background="new -49 141 512 512" xml:space="preserve">
<g id="Layer_1_1_" display="none">
	<path id="instagram-icon" display="inline" fill="#1F1D1C" d="M309.8,607.6h143.1v219.7c0,53.5-43.4,96.9-96.9,96.9H59.9
		c-53.5,0-96.9-43.4-96.9-96.9V607.6h142.5c-14.6,20.4-23.2,45.5-23.2,72.6c0,69.2,56.2,125.4,125.4,125.4S333,749.4,333,680.2
		C333,653.1,324.4,628.2,309.8,607.6z M452.9,528.7v63.6h-156c-22.7-23.1-54.3-37.4-89.3-37.4s-66.6,14.3-89.3,37.4H-36.9v-63.6
		c0-32.6,16.1-61.6,40.9-79.1V554h19.8V438.7c4.5-1.8,9.2-3.3,14-4.4V554h19.8V431.8c0.7,0,1.4,0,2.3,0h11.5V554h19.8V431.8H356
		C409.5,431.8,452.9,475.2,452.9,528.7z M408.7,487.8c0-8.6-6.9-15.5-15.5-15.5h-52.4c-8.6,0-15.5,6.9-15.5,15.5v53.5
		c0,8.6,6.9,15.5,15.5,15.5h52.4c8.6,0,15.5-6.9,15.5-15.5V487.8L408.7,487.8z M111.1,680.3c0-28.9,12.8-54.9,33-72.6
		c7.1-6.2,15.1-11.4,23.8-15.3c12.2-5.5,25.6-8.6,39.8-8.6c14.2,0,27.7,3.1,39.8,8.6c8.7,3.9,16.7,9.1,23.8,15.3
		c20.2,17.7,33,43.6,33,72.6c0,53.2-43.3,96.6-96.6,96.6C154.4,776.9,111.1,733.5,111.1,680.3z M136.6,680.3
		c0,39.4,31.9,71.4,71.4,71.4s71.4-31.9,71.4-71.4s-31.9-71.4-71.4-71.4C168.6,608.9,136.6,640.8,136.6,680.3z"/>
</g>
<g id="Layer_2">
	<path fill="none" stroke="#1F1D1C" stroke-width="24" stroke-miterlimit="10" d="M-34.9,542.6c0,0,61.2-25.9,76.7-62.9
		c14.6,27.8,53.3,61.2,79.6,61c26.3-0.2,65.9-41.5,85.3-91.7c25.8,63.7,31.3,92.8,67.3,93.6c26.3,0,78.1-22.6,93.5-64.9
		c8.5,32.8,32.2,63.2,81.5,63.7"/>
</g>
<g id="Layer_4">
	<path fill="#1F1D1C" d="M68.7,512.4c0,0,148.9-133.1,54.5-244c65.4,7,215.2,123.6,221.4,235.6c-37.8,43.8-26.5,30.9-59,37
		c-32.6,6.1-47.2-18.5-78.9-91.9c-18.3,26-27,90-79.6,91.3C74.5,541.7,68.7,512.4,68.7,512.4z"/>
</g>
<g id="Layer_3">
	<path fill="none" stroke="#1F1D1C" stroke-width="18" stroke-miterlimit="10" d="M65.8,510.5c0,0,148.9-133.1,54.5-244
		c65.4,7,199.5,118.6,205.1,235.6"/>
</g>
</svg>
