<?xml version="1.0" encoding="utf-8"?>

<!-- License Agreement at http://iconmonstr.com/license/ -->

<!DOCTYPE svg PUBLIC "-//W3C//DTD SVG 1.1//EN" "http://www.w3.org/Graphics/SVG/1.1/DTD/svg11.dtd">
<svg version="1.1" xmlns="http://www.w3.org/2000/svg" xmlns:xlink="http://www.w3.org/1999/xlink" x="0px" y="0px"
	 width="512px" height="512px" viewBox="0 0 512 512" enable-background="new 0 0 512 512" xml:space="preserve">
<path id="briefcase-16-icon" d="M201.875,141.084v-17.063c0-3.739,3.031-6.771,6.771-6.771h94.709c3.739,0,6.771,3.031,6.771,6.771
	v17.063h30v-30.563c0-11.747-9.523-21.271-21.271-21.271H193.146c-11.748,0-21.271,9.523-21.271,21.271v30.563H201.875z
	 M304.589,300.38L259.1,254.891l5.684-5.685l45.489,45.489L304.589,300.38z M242.959,271.032l32.106,32.107l-5.685,5.684
	l-32.104-32.107L242.959,271.032z M253.785,260.206l45.488,45.488l-5.683,5.684l-45.49-45.489L253.785,260.206z M462,161.084V422.75
	H50V161.084h98.731c-9.846,39.705,22.128,76.913,51.24,83.657l-0.001,26.463l80.68,80.721l59.343-59.342L259.271,211.9h-27.595
	c-3.079-14.203-9.729-31.188-5.865-50.816H462z M238.308,249.595c-6.682,6.682-17.967,3.652-20.604-5.202
	c7.026-2.3,13.21-7.599,14.899-15.526C241.842,231.202,245.115,242.788,238.308,249.595z M213.613,161.084
	c-3.322,20.235,2.567,37.439,5.745,50.834l-19.387,0.027v20.379c-22.14-6.975-49.104-37.722-38.801-71.24H213.613z"/>
</svg>
